<?xml version="1.0" encoding="UTF-8" standalone="no"?>
<!DOCTYPE svg PUBLIC "-//W3C//DTD SVG 1.1//EN"
 "http://www.w3.org/Graphics/SVG/1.1/DTD/svg11.dtd">
<!-- Generated by graphviz version 8.0.5 (20230430.1635)
 -->
<!-- Pages: 1 -->
<svg width="378pt" height="310pt"
 viewBox="0.00 0.00 377.70 309.50" xmlns="http://www.w3.org/2000/svg" xmlns:xlink="http://www.w3.org/1999/xlink">
<g id="graph0" class="graph" transform="scale(1 1) rotate(0) translate(4 305.5)">
<polygon fill="white" stroke="none" points="-4,4 -4,-305.5 373.7,-305.5 373.7,4 -4,4"/>
<!-- Bridge -->
<g id="node1" class="node">
<title>Bridge</title>
<ellipse fill="none" stroke="black" cx="52.22" cy="-283.5" rx="36" ry="18"/>
<text text-anchor="middle" x="52.22" y="-278.45" font-family="Times,serif" font-size="14.00">Bridge</text>
</g>
<!-- Domain -->
<g id="node2" class="node">
<title>Domain</title>
<ellipse fill="none" stroke="black" cx="156.22" cy="-18" rx="41.12" ry="18"/>
<text text-anchor="middle" x="156.22" y="-12.95" font-family="Times,serif" font-size="14.00">Domain</text>
</g>
<!-- Bridge&#45;&gt;Domain -->
<g id="edge1" class="edge">
<title>Bridge&#45;&gt;Domain</title>
<path fill="none" stroke="black" d="M41.71,-266.02C20.65,-230.68 -21.75,-146.15 14.22,-88.5 34.74,-55.62 75.83,-37.86 108.55,-28.55"/>
<polygon fill="black" stroke="black" points="109.08,-31.77 117.84,-25.82 107.28,-25 109.08,-31.77"/>
<text text-anchor="middle" x="7.97" y="-145.7" font-family="Times,serif" font-size="14.00">15</text>
</g>
<!-- Infrastructure -->
<g id="node3" class="node">
<title>Infrastructure</title>
<ellipse fill="none" stroke="black" cx="84.22" cy="-106.5" rx="61.08" ry="18"/>
<text text-anchor="middle" x="84.22" y="-101.45" font-family="Times,serif" font-size="14.00">Infrastructure</text>
</g>
<!-- Bridge&#45;&gt;Infrastructure -->
<g id="edge2" class="edge">
<title>Bridge&#45;&gt;Infrastructure</title>
<path fill="none" stroke="black" d="M52.6,-265.15C53.33,-244.1 55.46,-207.63 61.72,-177 64.6,-162.87 69.36,-147.58 73.76,-134.95"/>
<polygon fill="black" stroke="black" points="77.39,-136.23 77.48,-125.64 70.8,-133.86 77.39,-136.23"/>
<text text-anchor="middle" x="68.97" y="-189.95" font-family="Times,serif" font-size="14.00">23</text>
</g>
<!-- Application -->
<g id="node4" class="node">
<title>Application</title>
<ellipse fill="none" stroke="black" cx="138.22" cy="-195" rx="54.42" ry="18"/>
<text text-anchor="middle" x="138.22" y="-189.95" font-family="Times,serif" font-size="14.00">Application</text>
</g>
<!-- Bridge&#45;&gt;Application -->
<g id="edge3" class="edge">
<title>Bridge&#45;&gt;Application</title>
<path fill="none" stroke="black" d="M67.59,-267.04C80.59,-253.96 99.44,-235.01 114.39,-219.97"/>
<polygon fill="black" stroke="black" points="116.24,-223.07 120.8,-213.51 111.27,-218.13 116.24,-223.07"/>
<text text-anchor="middle" x="109.97" y="-234.2" font-family="Times,serif" font-size="14.00">43</text>
</g>
<!-- Infrastructure&#45;&gt;Domain -->
<g id="edge6" class="edge">
<title>Infrastructure&#45;&gt;Domain</title>
<path fill="none" stroke="black" d="M98.1,-88.82C108.83,-75.94 123.83,-57.91 135.91,-43.4"/>
<polygon fill="black" stroke="black" points="138.92,-46.26 142.62,-36.33 133.53,-41.78 138.92,-46.26"/>
<text text-anchor="middle" x="133.97" y="-57.2" font-family="Times,serif" font-size="14.00">30</text>
</g>
<!-- Application&#45;&gt;Domain -->
<g id="edge4" class="edge">
<title>Application&#45;&gt;Domain</title>
<path fill="none" stroke="black" d="M143.24,-176.76C147.05,-162.8 151.99,-142.56 154.22,-124.5 157.43,-98.42 157.67,-68.45 157.26,-47.13"/>
<polygon fill="black" stroke="black" points="160.74,-47.16 156.98,-37.25 153.74,-47.34 160.74,-47.16"/>
<text text-anchor="middle" x="163.97" y="-101.45" font-family="Times,serif" font-size="14.00">26</text>
</g>
<!-- Application&#45;&gt;Infrastructure -->
<g id="edge5" class="edge">
<title>Application&#45;&gt;Infrastructure</title>
<path fill="none" stroke="black" d="M127.55,-176.91C119.86,-164.59 109.33,-147.73 100.58,-133.71"/>
<polygon fill="black" stroke="black" points="103.13,-132.18 94.86,-125.55 97.19,-135.89 103.13,-132.18"/>
<text text-anchor="middle" x="119.59" y="-145.7" font-family="Times,serif" font-size="14.00">6</text>
</g>
<!-- DatabaseSeeders -->
<g id="node5" class="node">
<title>DatabaseSeeders</title>
<ellipse fill="none" stroke="black" cx="291.22" cy="-195" rx="73.36" ry="18"/>
<text text-anchor="middle" x="291.22" y="-189.95" font-family="Times,serif" font-size="14.00">DatabaseSeeders</text>
</g>
<!-- DatabaseFactories -->
<g id="node6" class="node">
<title>DatabaseFactories</title>
<ellipse fill="none" stroke="black" cx="291.22" cy="-106.5" rx="78.48" ry="18"/>
<text text-anchor="middle" x="291.22" y="-101.45" font-family="Times,serif" font-size="14.00">DatabaseFactories</text>
</g>
<!-- DatabaseSeeders&#45;&gt;DatabaseFactories -->
<g id="edge7" class="edge">
<title>DatabaseSeeders&#45;&gt;DatabaseFactories</title>
<path fill="none" stroke="black" d="M291.22,-176.91C291.22,-165.14 291.22,-149.23 291.22,-135.61"/>
<polygon fill="black" stroke="black" points="294.72,-135.85 291.22,-125.85 287.72,-135.85 294.72,-135.85"/>
<text text-anchor="middle" x="294.59" y="-145.7" font-family="Times,serif" font-size="14.00">6</text>
</g>
<!-- DatabaseFactories&#45;&gt;Domain -->
<g id="edge8" class="edge">
<title>DatabaseFactories&#45;&gt;Domain</title>
<path fill="none" stroke="black" d="M265.51,-89.03C243.45,-74.9 211.59,-54.48 187.95,-39.33"/>
<polygon fill="black" stroke="black" points="190,-35.85 179.7,-33.4 186.23,-41.74 190,-35.85"/>
<text text-anchor="middle" x="242.97" y="-57.2" font-family="Times,serif" font-size="14.00">32</text>
</g>
</g>
</svg>
